<mxfile host="app.diagrams.net" modified="2020-10-22T15:01:02.232Z" agent="5.0 (Windows NT 10.0; Win64; x64) AppleWebKit/537.36 (KHTML, like Gecko) Chrome/86.0.4240.75 Safari/537.36" etag="NsMGEFxy21f2-EmjjQ90" version="13.8.1" type="github">
  <diagram id="idh6sbbanxzsYGX7YUBf" name="Page-1">
    <mxGraphModel dx="1038" dy="528" grid="1" gridSize="15" guides="1" tooltips="1" connect="1" arrows="1" fold="1" page="1" pageScale="1" pageWidth="850" pageHeight="1100" math="0" shadow="0">
      <root>
        <mxCell id="0" />
        <mxCell id="1" parent="0" />
        <mxCell id="DKUsA_I7Ruy9TK1noihP-1" value="" style="rounded=1;whiteSpace=wrap;html=1;fillColor=#dae8fc;strokeColor=#6c8ebf;gradientColor=#7ea6e0;" parent="1" vertex="1">
          <mxGeometry x="370" y="180" width="120" height="60" as="geometry" />
        </mxCell>
        <mxCell id="DKUsA_I7Ruy9TK1noihP-2" value="Eloqua" style="text;html=1;strokeColor=none;fillColor=none;align=center;verticalAlign=middle;whiteSpace=wrap;rounded=0;fontStyle=1;fontSize=14;" parent="1" vertex="1">
          <mxGeometry x="410" y="200" width="40" height="20" as="geometry" />
        </mxCell>
        <mxCell id="DKUsA_I7Ruy9TK1noihP-3" value="" style="rounded=1;whiteSpace=wrap;html=1;fillColor=#f5f5f5;strokeColor=#666666;gradientColor=#b3b3b3;" parent="1" vertex="1">
          <mxGeometry x="95" y="180" width="120" height="60" as="geometry" />
        </mxCell>
        <mxCell id="DKUsA_I7Ruy9TK1noihP-4" value="Cut Charts Website" style="text;html=1;strokeColor=none;fillColor=none;align=center;verticalAlign=middle;whiteSpace=wrap;rounded=0;fontStyle=1;fontSize=14;" parent="1" vertex="1">
          <mxGeometry x="135" y="200" width="40" height="20" as="geometry" />
        </mxCell>
        <mxCell id="DKUsA_I7Ruy9TK1noihP-5" value="" style="endArrow=classic;html=1;fontSize=14;strokeWidth=3;exitX=1;exitY=0.5;exitDx=0;exitDy=0;entryX=0;entryY=0.5;entryDx=0;entryDy=0;strokeColor=#80FF00;shadow=0;sketch=0;" parent="1" source="DKUsA_I7Ruy9TK1noihP-3" target="DKUsA_I7Ruy9TK1noihP-1" edge="1">
          <mxGeometry width="50" height="50" relative="1" as="geometry">
            <mxPoint x="320" y="290" as="sourcePoint" />
            <mxPoint x="370" y="240" as="targetPoint" />
          </mxGeometry>
        </mxCell>
        <mxCell id="DKUsA_I7Ruy9TK1noihP-6" value="&lt;b&gt;Subscribe&lt;/b&gt;&amp;nbsp;" style="text;html=1;strokeColor=none;fillColor=none;align=center;verticalAlign=middle;whiteSpace=wrap;rounded=0;fontSize=14;" parent="1" vertex="1">
          <mxGeometry x="265" y="180" width="40" height="20" as="geometry" />
        </mxCell>
        <mxCell id="DKUsA_I7Ruy9TK1noihP-7" value="" style="rounded=1;whiteSpace=wrap;html=1;fontSize=14;fillColor=#e6d0de;strokeColor=#996185;gradientColor=#d5739d;" parent="1" vertex="1">
          <mxGeometry x="635" y="120" width="120" height="60" as="geometry" />
        </mxCell>
        <mxCell id="DKUsA_I7Ruy9TK1noihP-8" value="Thank you" style="text;html=1;strokeColor=none;fillColor=none;align=center;verticalAlign=middle;whiteSpace=wrap;rounded=0;fontSize=14;fontStyle=1" parent="1" vertex="1">
          <mxGeometry x="675" y="140" width="40" height="20" as="geometry" />
        </mxCell>
        <mxCell id="DKUsA_I7Ruy9TK1noihP-9" value="" style="endArrow=classic;html=1;strokeWidth=3;fontSize=14;entryX=0;entryY=0.5;entryDx=0;entryDy=0;exitX=1;exitY=0.5;exitDx=0;exitDy=0;strokeColor=#80FF00;" parent="1" source="DKUsA_I7Ruy9TK1noihP-1" target="DKUsA_I7Ruy9TK1noihP-7" edge="1">
          <mxGeometry width="50" height="50" relative="1" as="geometry">
            <mxPoint x="500" y="230" as="sourcePoint" />
            <mxPoint x="550" y="180" as="targetPoint" />
            <Array as="points">
              <mxPoint x="555" y="150" />
            </Array>
          </mxGeometry>
        </mxCell>
        <mxCell id="DKUsA_I7Ruy9TK1noihP-12" value="" style="rounded=1;whiteSpace=wrap;html=1;fontSize=14;fillColor=#f8cecc;strokeColor=#b85450;gradientColor=#ea6b66;" parent="1" vertex="1">
          <mxGeometry x="95" y="420" width="120" height="60" as="geometry" />
        </mxCell>
        <mxCell id="DKUsA_I7Ruy9TK1noihP-13" value="Cut Chart Storage" style="text;html=1;strokeColor=none;fillColor=none;align=center;verticalAlign=middle;whiteSpace=wrap;rounded=0;fontSize=14;fontStyle=1" parent="1" vertex="1">
          <mxGeometry x="135" y="440" width="40" height="20" as="geometry" />
        </mxCell>
        <mxCell id="DKUsA_I7Ruy9TK1noihP-14" value="" style="rounded=1;whiteSpace=wrap;html=1;fontSize=14;gradientColor=#b3b3b3;fillColor=#f5f5f5;strokeColor=#666666;" parent="1" vertex="1">
          <mxGeometry x="95" y="300" width="120" height="60" as="geometry" />
        </mxCell>
        <mxCell id="DKUsA_I7Ruy9TK1noihP-15" value="API Backend" style="text;html=1;strokeColor=none;fillColor=none;align=center;verticalAlign=middle;whiteSpace=wrap;rounded=0;fontSize=14;fontStyle=1" parent="1" vertex="1">
          <mxGeometry x="135" y="320" width="40" height="20" as="geometry" />
        </mxCell>
        <mxCell id="DKUsA_I7Ruy9TK1noihP-16" value="" style="endArrow=classic;html=1;shadow=0;strokeWidth=3;fontSize=14;exitX=0.5;exitY=1;exitDx=0;exitDy=0;entryX=0.5;entryY=0;entryDx=0;entryDy=0;fontColor=#FF0000;strokeColor=#FF0000;" parent="1" source="DKUsA_I7Ruy9TK1noihP-14" target="DKUsA_I7Ruy9TK1noihP-12" edge="1">
          <mxGeometry width="50" height="50" relative="1" as="geometry">
            <mxPoint x="405" y="395" as="sourcePoint" />
            <mxPoint x="455" y="345" as="targetPoint" />
          </mxGeometry>
        </mxCell>
        <mxCell id="DKUsA_I7Ruy9TK1noihP-17" value="" style="rounded=1;whiteSpace=wrap;html=1;fontSize=14;gradientColor=#b3b3b3;fillColor=#f5f5f5;strokeColor=#666666;" parent="1" vertex="1">
          <mxGeometry x="370" y="420" width="120" height="60" as="geometry" />
        </mxCell>
        <mxCell id="DKUsA_I7Ruy9TK1noihP-18" value="New Cut Chart Trigger" style="text;html=1;strokeColor=none;fillColor=none;align=center;verticalAlign=middle;whiteSpace=wrap;rounded=0;fontSize=14;fontStyle=1" parent="1" vertex="1">
          <mxGeometry x="385" y="440" width="90" height="20" as="geometry" />
        </mxCell>
        <mxCell id="DKUsA_I7Ruy9TK1noihP-19" value="" style="endArrow=classic;html=1;shadow=0;strokeColor=#FF0000;strokeWidth=3;fontSize=14;fontColor=#000000;exitX=1;exitY=0.5;exitDx=0;exitDy=0;entryX=0;entryY=0.5;entryDx=0;entryDy=0;" parent="1" source="DKUsA_I7Ruy9TK1noihP-12" target="DKUsA_I7Ruy9TK1noihP-17" edge="1">
          <mxGeometry width="50" height="50" relative="1" as="geometry">
            <mxPoint x="240" y="470" as="sourcePoint" />
            <mxPoint x="290" y="420" as="targetPoint" />
          </mxGeometry>
        </mxCell>
        <mxCell id="DKUsA_I7Ruy9TK1noihP-20" value="" style="endArrow=classic;html=1;shadow=0;strokeColor=#FF0000;strokeWidth=3;fontSize=14;fontColor=#000000;exitX=0.5;exitY=0;exitDx=0;exitDy=0;entryX=0.5;entryY=1;entryDx=0;entryDy=0;" parent="1" source="DKUsA_I7Ruy9TK1noihP-17" target="DKUsA_I7Ruy9TK1noihP-1" edge="1">
          <mxGeometry width="50" height="50" relative="1" as="geometry">
            <mxPoint x="405" y="335" as="sourcePoint" />
            <mxPoint x="455" y="285" as="targetPoint" />
          </mxGeometry>
        </mxCell>
        <mxCell id="DKUsA_I7Ruy9TK1noihP-21" value="New Campaign" style="text;html=1;strokeColor=none;fillColor=none;align=center;verticalAlign=middle;whiteSpace=wrap;rounded=0;fontSize=14;fontColor=#000000;fontStyle=1" parent="1" vertex="1">
          <mxGeometry x="370" y="320" width="40" height="20" as="geometry" />
        </mxCell>
        <mxCell id="DKUsA_I7Ruy9TK1noihP-23" value="" style="rounded=1;whiteSpace=wrap;html=1;fontSize=14;gradientColor=#d5739d;fillColor=#e6d0de;strokeColor=#996185;" parent="1" vertex="1">
          <mxGeometry x="635" y="320" width="120" height="60" as="geometry" />
        </mxCell>
        <mxCell id="DKUsA_I7Ruy9TK1noihP-24" value="New Cut Chart Available" style="text;html=1;strokeColor=none;fillColor=none;align=center;verticalAlign=middle;whiteSpace=wrap;rounded=0;fontSize=14;fontColor=#000000;fontStyle=1" parent="1" vertex="1">
          <mxGeometry x="645" y="340" width="105" height="20" as="geometry" />
        </mxCell>
        <mxCell id="DKUsA_I7Ruy9TK1noihP-25" value="" style="endArrow=classic;html=1;shadow=0;strokeColor=#FF0000;strokeWidth=3;fontSize=14;fontColor=#000000;entryX=0;entryY=0.5;entryDx=0;entryDy=0;exitX=1;exitY=0.5;exitDx=0;exitDy=0;" parent="1" source="DKUsA_I7Ruy9TK1noihP-1" target="DKUsA_I7Ruy9TK1noihP-23" edge="1">
          <mxGeometry width="50" height="50" relative="1" as="geometry">
            <mxPoint x="405" y="335" as="sourcePoint" />
            <mxPoint x="455" y="285" as="targetPoint" />
            <Array as="points">
              <mxPoint x="555" y="350" />
            </Array>
          </mxGeometry>
        </mxCell>
        <mxCell id="DKUsA_I7Ruy9TK1noihP-26" value="Cut Chart Email Flow" style="text;html=1;strokeColor=none;fillColor=none;align=center;verticalAlign=middle;whiteSpace=wrap;rounded=0;fontSize=40;fontStyle=1;fontColor=#0066CC;" parent="1" vertex="1">
          <mxGeometry x="45" y="30" width="735" height="20" as="geometry" />
        </mxCell>
        <mxCell id="DKUsA_I7Ruy9TK1noihP-28" value="" style="ellipse;shape=cloud;whiteSpace=wrap;html=1;fontSize=40;gradientColor=#7ea6e0;fillColor=#dae8fc;strokeColor=#6c8ebf;aspect=fixed;" parent="1" vertex="1">
          <mxGeometry x="629" y="203.48000000000002" width="132" height="88.04" as="geometry" />
        </mxCell>
        <mxCell id="DKUsA_I7Ruy9TK1noihP-29" value="&lt;font style=&quot;font-size: 14px&quot;&gt;Unsubscribe&lt;/font&gt;" style="text;html=1;strokeColor=none;fillColor=none;align=center;verticalAlign=middle;whiteSpace=wrap;rounded=0;fontSize=40;fontStyle=1" parent="1" vertex="1">
          <mxGeometry x="660" y="220" width="75" height="45" as="geometry" />
        </mxCell>
        <mxCell id="DKUsA_I7Ruy9TK1noihP-34" value="" style="endArrow=classic;html=1;shadow=0;strokeWidth=3;fontSize=40;fontColor=#000000;entryX=0.5;entryY=0;entryDx=0;entryDy=0;exitX=0.5;exitY=1;exitDx=0;exitDy=0;strokeColor=#0000CC;" parent="1" source="DKUsA_I7Ruy9TK1noihP-7" target="DKUsA_I7Ruy9TK1noihP-29" edge="1">
          <mxGeometry width="50" height="50" relative="1" as="geometry">
            <mxPoint x="675" y="230" as="sourcePoint" />
            <mxPoint x="725" y="180" as="targetPoint" />
          </mxGeometry>
        </mxCell>
        <mxCell id="DKUsA_I7Ruy9TK1noihP-35" value="" style="endArrow=classic;html=1;shadow=0;strokeColor=#0000CC;strokeWidth=3;fontSize=40;fontColor=#000000;exitX=0.5;exitY=0;exitDx=0;exitDy=0;entryX=0.55;entryY=0.95;entryDx=0;entryDy=0;entryPerimeter=0;" parent="1" source="DKUsA_I7Ruy9TK1noihP-23" target="DKUsA_I7Ruy9TK1noihP-28" edge="1">
          <mxGeometry width="50" height="50" relative="1" as="geometry">
            <mxPoint x="675" y="335" as="sourcePoint" />
            <mxPoint x="689" y="287" as="targetPoint" />
          </mxGeometry>
        </mxCell>
        <mxCell id="DKUsA_I7Ruy9TK1noihP-36" value="" style="endArrow=classic;html=1;shadow=0;strokeColor=#0000CC;strokeWidth=3;fontSize=40;fontColor=#000000;exitX=0.16;exitY=0.55;exitDx=0;exitDy=0;exitPerimeter=0;" parent="1" source="DKUsA_I7Ruy9TK1noihP-28" edge="1">
          <mxGeometry width="50" height="50" relative="1" as="geometry">
            <mxPoint x="570" y="260" as="sourcePoint" />
            <mxPoint x="495" y="210" as="targetPoint" />
          </mxGeometry>
        </mxCell>
        <mxCell id="rsId0TGLiYadqz3__u7i-1" value="" style="endArrow=classic;html=1;exitX=0.5;exitY=1;exitDx=0;exitDy=0;strokeWidth=3;" edge="1" parent="1" source="DKUsA_I7Ruy9TK1noihP-23">
          <mxGeometry width="50" height="50" relative="1" as="geometry">
            <mxPoint x="690" y="455" as="sourcePoint" />
            <mxPoint x="90" y="210" as="targetPoint" />
            <Array as="points">
              <mxPoint x="695" y="540" />
              <mxPoint x="30" y="540" />
              <mxPoint x="30" y="210" />
            </Array>
          </mxGeometry>
        </mxCell>
      </root>
    </mxGraphModel>
  </diagram>
</mxfile>
